{"title":"Hitman-Agent-47.2015.HDCAM.SHQ-MiC.XVID.AC3.HQ.Hive-CM8","uid":12345263,"size":1433023939,"categoryP":"video","categoryS":"movies","magnet":"?xt=urn:btih:3deaba12a8ac3cce5bd5a2c5982d78fd0a2c156e&amp;dn=Hitman-Agent-47.2015.HDCAM.SHQ-MiC.XVID.AC3.HQ.Hive-CM8&amp;tr=udp%3A%2F%2Ftracker.openbittorrent.com%3A80&amp;tr=udp%3A%2F%2Fopen.demonii.com%3A1337&amp;tr=udp%3A%2F%2Ftracker.coppersurfer.tk%3A6969&amp;tr=udp%3A%2F%2Fexodus.desync.com%3A6969","seeders":327,"leechers":150,"uploader":"xxxlavalxxx","files":4,"time":1441344562,"description":" &lt;a href=&quot;http://extraimago.com/image/Rz6&quot; rel=&quot;nofollow&quot; target=&quot;_NEW&quot;&gt;http://extraimago.com/image/Rz6&lt;/a&gt;\n &lt;a href=&quot;\nhttp://www.imdb.com/title/tt2679042/&quot; rel=&quot;nofollow&quot; target=&quot;_NEW&quot;&gt;\nhttp://www.imdb.com/title/tt2679042/&lt;/a&gt;\n\n\nHITMAN: AGENT 47 centers on an elite assassin who was genetically engineered from conception to be the perfect killing machine, and is known only by the last two digits on the barcode tattooed on the back of his neck. He is the culmination of decades of research Â­ and forty-six earlier Agent clones -- endowing him with unprecedented strength, speed, stamina and intelligence. His latest target is a mega-corporation that plans to unlock the secret of Agent 47's past to create an army of killers whose powers surpass even his own. Teaming up with a young woman who may hold the secret to overcoming their powerful and clandestine enemies, 47 confronts stunning revelations about his own origins and squares off in an epic battle with his deadliest foe. \n\nDirector: Aleksander Bach\nWriters: Skip Woods (screenplay), Michael Finch (screenplay)\nStars: Rupert Friend, Hannah Ware, Zachary Quinto\nGenres: Action | Crime | Thriller\nCountry: Germany | USA\nLanguage: English\n\n\nHitman-Agent-47.2015.HDCAM.SHQ-MiC.XVID.AC3.HQ.Hive-CM8\n\nThx Hive\n\nCM8 Doing It Right The First Time\n\nSources:\n\nVideo: 720P HDCAM Latin\nAudio: HQ-MIC Cadance\nthx\n\nEncode:\n\nLatin Video was full and very nice to begin with.\nVideo was bright enough already but needed rotating and fixing perspective and ar, also added sharpness.\n\nCadance was so nice to send me a HQ-Mic, def the best mic i have heard so far, will do just fine\ncould be passed as line, i was tempted to tag ts seeing some of you cant tell the difference anyway \nno laughing or coughing in the background, music is loud and clear, cant be done any better but you are welcome to try\ncleaned and lipsynced to my video\n\nwill do me till retail/web-dl\nenjoy\n\nVideo: 720x336 @bitrate 1800 2pass\nAudio: Super Hiqh Quality (SHQ) MIC Stereo 2.0\nSample: yes included\n\n\n &lt;a href=&quot;\nhttp://www.imdb.com/title/tt2679042/&quot; rel=&quot;nofollow&quot; target=&quot;_NEW&quot;&gt;\nhttp://www.imdb.com/title/tt2679042/&lt;/a&gt;\n\n\nGeneral\nComplete name                  : Hitman-Agent-47.2015.HDCAM.SHQ-MiC.XVID.AC3.HQ.Hive-CM8.avi\nFormat                         : AVI\nFormat/Info                    : Audio Video Interleave\nFile size                      : 1.32 GiB\nDuration                       : 1h 31mn\nOverall bit rate               : 2 067 Kbps\nWriting application            : Nandub v1.0rc2\nWriting library                : Nandub build 1853/release\n\nVideo\nID                             : 0\nFormat                         : MPEG-4 Visual\nFormat profile                 : Advanced Simple@L5\nFormat settings, BVOP          : 2\nFormat settings, QPel          : Yes\nFormat settings, GMC           : No warppoints\nFormat settings, Matrix        : Default (H.263)\nMuxing mode                    : Packed bitstream\nCodec ID                       : XVID\nCodec ID/Hint                  : XviD\nDuration                       : 1h 31mn\nBit rate                       : 1 802 Kbps\nWidth                          : 720 pixels\nHeight                         : 336 pixels\nDisplay aspect ratio           : 2.143\nFrame rate                     : 23.976 fps\nColor space                    : YUV\nChroma subsampling             : 4:2:0\nBit depth                      : 8 bits\nScan type                      : Progressive\nCompression mode               : Lossy\nBits/(Pixel*Frame)             : 0.311\nStream size                    : 1.15 GiB (87%)\nWriting library                : XviD 1.2.1 (UTC 2008-12-04)\n\nAudio\nID                             : 1\nFormat                         : AC-3\nFormat/Info                    : Audio Coding 3\nMode extension                 : CM (complete main)\nFormat settings, Endianness    : Big\nCodec ID                       : 2000\nDuration                       : 1h 31mn\nBit rate mode                  : Constant\nBit rate                       : 256 Kbps\nChannel(s)                     : 2 channels\nChannel positions              : Front: L R\nSampling rate                  : 48.0 KHz\nBit depth                      : 16 bits\nCompression mode               : Lossy\nDelay relative to video        : 50ms\nStream size                    : 167 MiB (12%)\nAlignment                      : Split accross interleaves\nInterleave, duration           : 42 ms (1.00 video frame)\nInterleave, preload duration   : 500 ms\n\n &lt;a href=&quot;\nhttp://extraimago.com/image/Rz5&quot; rel=&quot;nofollow&quot; target=&quot;_NEW&quot;&gt;\nhttp://extraimago.com/image/Rz5&lt;/a&gt; &lt;a href=&quot;\nhttp://extraimago.com/image/RzD&quot; rel=&quot;nofollow&quot; target=&quot;_NEW&quot;&gt;\nhttp://extraimago.com/image/RzD&lt;/a&gt; &lt;a href=&quot;\nhttp://extraimago.com/image/RzF&quot; rel=&quot;nofollow&quot; target=&quot;_NEW&quot;&gt;\nhttp://extraimago.com/image/RzF&lt;/a&gt; &lt;a href=&quot;\nhttp://extraimago.com/image/RzH&quot; rel=&quot;nofollow&quot; target=&quot;_NEW&quot;&gt;\nhttp://extraimago.com/image/RzH&lt;/a&gt; &lt;a href=&quot;\nhttp://extraimago.com/image/Rzo&quot; rel=&quot;nofollow&quot; target=&quot;_NEW&quot;&gt;\nhttp://extraimago.com/image/Rzo&lt;/a&gt; &lt;a href=&quot;\nhttp://extraimago.com/image/Rzt&quot; rel=&quot;nofollow&quot; target=&quot;_NEW&quot;&gt;\nhttp://extraimago.com/image/Rzt&lt;/a&gt; &lt;a href=&quot;\nhttp://extraimago.com/image/Rzx&quot; rel=&quot;nofollow&quot; target=&quot;_NEW&quot;&gt;\nhttp://extraimago.com/image/Rzx&lt;/a&gt;","torrent":{"xt":"urn:btih:3deaba12a8ac3cce5bd5a2c5982d78fd0a2c156e","amp;dn":"Hitman-Agent-47.2015.HDCAM.SHQ-MiC.XVID.AC3.HQ.Hive-CM8","amp;tr":["udp%3A%2F%2Ftracker.openbittorrent.com%3A80","udp%3A%2F%2Fopen.demonii.com%3A1337","udp%3A%2F%2Ftracker.coppersurfer.tk%3A6969","udp%3A%2F%2Fexodus.desync.com%3A6969"],"infoHash":"3deaba12a8ac3cce5bd5a2c5982d78fd0a2c156e","infoHashBuffer":{"type":"Buffer","data":[61,234,186,18,168,172,60,206,91,213,162,197,152,45,120,253,10,44,21,110]},"announce":[],"urlList":[]}}